<svg xmlns="http://www.w3.org/2000/svg" width="32" height="32" viewBox="0 0 32 32">
    <g fill="none" fill-rule="evenodd">
        <circle cx="16" cy="16" r="16" fill="#F3F3F4"/>
        <path fill="#333" fill-rule="nonzero" d="M13.536 22.497c6.03 0 9.33-4.994 9.33-9.33 0-.142 0-.284-.01-.426.639-.467 1.197-1.046 1.644-1.695-.589.254-1.228.436-1.888.507.68-.406 1.198-1.045 1.441-1.807-.63.376-1.34.65-2.081.792-.599-.64-1.452-1.035-2.396-1.035-1.817 0-3.28 1.472-3.28 3.279 0 .254.031.507.082.751-2.72-.142-5.147-1.442-6.761-3.431-.285.487-.447 1.045-.447 1.654 0 1.137.579 2.142 1.462 2.731-.538-.02-1.046-.172-1.482-.416v.04c0 1.595 1.127 2.914 2.63 3.219-.275.071-.57.112-.864.112-.213 0-.416-.02-.62-.051.417 1.3 1.625 2.244 3.067 2.274-1.127.883-2.538 1.401-4.071 1.401-.274 0-.528-.01-.792-.04 1.452.933 3.178 1.471 5.036 1.471z"/>
    </g>
</svg>
